<svg width="16" height="18" viewBox="0 0 16 18" fill="none" xmlns="http://www.w3.org/2000/svg">
<g clip-path="url(#clip0)">
<path d="M15.6918 12.7368C15.0018 12.0069 13.7107 10.909 13.7107 7.3125C13.7107 4.58086 11.765 2.39414 9.14143 1.85766V1.125C9.14143 0.503789 8.63 0 7.99929 0C7.36858 0 6.85715 0.503789 6.85715 1.125V1.85766C4.23358 2.39414 2.28786 4.58086 2.28786 7.3125C2.28786 10.909 0.996792 12.0069 0.306792 12.7368C0.0925065 12.9635 -0.00249344 13.2346 -0.000707729 13.5C0.00322084 14.0766 0.462864 14.625 1.14572 14.625H14.8529C15.5357 14.625 15.9957 14.0766 15.9993 13.5C16.0011 13.2346 15.9061 12.9632 15.6918 12.7368V12.7368ZM2.41108 12.9375C3.16893 11.9542 3.99751 10.3243 4.00143 7.33289C4.00143 7.32586 3.99929 7.31953 3.99929 7.3125C3.99929 5.13773 5.79001 3.375 7.99929 3.375C10.2086 3.375 11.9993 5.13773 11.9993 7.3125C11.9993 7.31953 11.9971 7.32586 11.9971 7.33289C12.0011 10.3247 12.8296 11.9545 13.5875 12.9375H2.41108ZM7.99929 18C9.26072 18 10.2839 16.9928 10.2839 15.75H5.71465C5.71465 16.9928 6.73786 18 7.99929 18Z" fill="#202240"/>
</g>
<defs>
<clipPath id="clip0">
<rect width="16" height="18" fill="white"/>
</clipPath>
</defs>
</svg>
