<svg width="21" height="18" viewBox="0 0 21 18" fill="none" xmlns="http://www.w3.org/2000/svg">
<path d="M19.7684 1.12691C17.7705 1.23625 13.7995 1.63421 11.348 3.08124C11.1789 3.18109 11.083 3.35863 11.083 3.54425V16.3366C11.083 16.7426 11.5434 16.9992 11.9317 16.8108C14.4539 15.5867 18.1016 15.2527 19.9052 15.1613C20.5209 15.13 20.9996 14.654 20.9996 14.0834V2.20621C21 1.58359 20.44 1.09035 19.7684 1.12691ZM9.65161 3.08124C7.20052 1.63421 3.22948 1.2366 1.23156 1.12691C0.56 1.09035 0 1.58359 0 2.20621V14.0837C0 14.6547 0.478698 15.1307 1.09448 15.1616C2.8988 15.253 6.54828 15.5874 9.07047 16.8122C9.45766 17.0003 9.91667 16.744 9.91667 16.339V3.53792C9.91667 3.35195 9.82115 3.18144 9.65161 3.08124Z" fill="white"/>
</svg>
