<svg width="28" height="30" viewBox="0 0 28 30" fill="none" xmlns="http://www.w3.org/2000/svg">
<g clip-path="url(#clip0)" filter="url(#filter0_d)">
<path d="M22.5714 1.4375H5.42857C5.04969 1.4375 4.68633 1.58895 4.41842 1.85853C4.15051 2.12812 4 2.49375 4 2.875V20.125C4 20.5062 4.15051 20.8719 4.41842 21.1415C4.68633 21.411 5.04969 21.5625 5.42857 21.5625H22.5714C22.9503 21.5625 23.3137 21.411 23.5816 21.1415C23.8495 20.8719 24 20.5062 24 20.125V2.875C24 2.49375 23.8495 2.12812 23.5816 1.85853C23.3137 1.58895 22.9503 1.4375 22.5714 1.4375ZM21.1429 4.3125V10.0625H15.4286V4.3125H21.1429ZM12.5714 4.3125V10.0625H6.85714V4.3125H12.5714ZM6.85714 18.6875V12.9375H12.5714V18.6875H6.85714ZM15.4286 18.6875V12.9375H21.1429V18.6875H15.4286Z" fill="#5843BE"/>
</g>
<defs>
<filter id="filter0_d" x="0" y="0" width="28" height="31" filterUnits="userSpaceOnUse" color-interpolation-filters="sRGB">
<feFlood flood-opacity="0" result="BackgroundImageFix"/>
<feColorMatrix in="SourceAlpha" type="matrix" values="0 0 0 0 0 0 0 0 0 0 0 0 0 0 0 0 0 0 127 0" result="hardAlpha"/>
<feOffset dy="4"/>
<feGaussianBlur stdDeviation="2"/>
<feComposite in2="hardAlpha" operator="out"/>
<feColorMatrix type="matrix" values="0 0 0 0 0 0 0 0 0 0 0 0 0 0 0 0 0 0 0.25 0"/>
<feBlend mode="normal" in2="BackgroundImageFix" result="effect1_dropShadow"/>
<feBlend mode="normal" in="SourceGraphic" in2="effect1_dropShadow" result="shape"/>
</filter>
<clipPath id="clip0">
<rect width="20" height="23" fill="white" transform="translate(4)"/>
</clipPath>
</defs>
</svg>
