<svg width="25" height="29" viewBox="0 0 25 29" fill="none" xmlns="http://www.w3.org/2000/svg">
<path d="M9.084 0.867998C12.58 0.867998 15.126 1.628 16.722 3.148C18.3433 4.64267 19.154 6.70733 19.154 9.342C19.154 10.9127 18.8247 12.3947 18.166 13.788C17.5073 15.156 16.4053 16.258 14.86 17.094C13.34 17.93 11.2627 18.348 8.628 18.348H6.158V28H0.42V0.867998H9.084ZM8.78 5.58H6.158V13.636H8.058C9.67933 13.636 10.9587 13.3193 11.896 12.686C12.8587 12.0273 13.34 10.976 13.34 9.532C13.34 6.89733 11.82 5.58 8.78 5.58ZM18.0918 25.34C18.0918 24.1747 18.4084 23.364 19.0418 22.908C19.6751 22.4267 20.4478 22.186 21.3598 22.186C22.2464 22.186 23.0064 22.4267 23.6398 22.908C24.2731 23.364 24.5898 24.1747 24.5898 25.34C24.5898 26.4547 24.2731 27.2653 23.6398 27.772C23.0064 28.2533 22.2464 28.494 21.3598 28.494C20.4478 28.494 19.6751 28.2533 19.0418 27.772C18.4084 27.2653 18.0918 26.4547 18.0918 25.34Z" fill="#FFA067"/>
</svg>
