<svg width="16" height="16" viewBox="0 0 16 16" fill="none" xmlns="http://www.w3.org/2000/svg">
<g clip-path="url(#clip0)">
<path d="M15.5596 4.44121L14.119 5.88184C13.9721 6.02871 13.7346 6.02871 13.5877 5.88184L10.119 2.41309C9.97211 2.26621 9.97211 2.02871 10.119 1.88184L11.5596 0.441211C12.144 -0.143164 13.094 -0.143164 13.6815 0.441211L15.5596 2.31934C16.1471 2.90371 16.1471 3.85371 15.5596 4.44121ZM8.88149 3.11934L0.675236 11.3256L0.0127361 15.1225C-0.0778889 15.635 0.368986 16.0787 0.881486 15.9912L4.67836 15.3256L12.8846 7.11934C13.0315 6.97246 13.0315 6.73496 12.8846 6.58809L9.41586 3.11934C9.26586 2.97246 9.02836 2.97246 8.88149 3.11934V3.11934ZM3.87836 10.6225C3.70649 10.4506 3.70649 10.1756 3.87836 10.0037L8.69086 5.19121C8.86274 5.01934 9.13774 5.01934 9.30961 5.19121C9.48149 5.36309 9.48149 5.63809 9.30961 5.80996L4.49711 10.6225C4.32524 10.7943 4.05024 10.7943 3.87836 10.6225V10.6225ZM2.75024 13.2506H4.25024V14.385L2.23461 14.7381L1.26274 13.7662L1.61586 11.7506H2.75024V13.2506Z" fill="white"/>
</g>
<defs>
<clipPath id="clip0">
<rect width="16" height="16" fill="white"/>
</clipPath>
</defs>
</svg>
