<svg width="20" height="20" viewBox="0 0 20 20" fill="none" xmlns="http://www.w3.org/2000/svg">
<path d="M19.375 15H6.25V14.375C6.25 14.0312 5.96875 13.75 5.625 13.75H4.375C4.03125 13.75 3.75 14.0312 3.75 14.375V15H0.625C0.28125 15 0 15.2812 0 15.625V16.875C0 17.2188 0.28125 17.5 0.625 17.5H3.75V18.125C3.75 18.4688 4.03125 18.75 4.375 18.75H5.625C5.96875 18.75 6.25 18.4688 6.25 18.125V17.5H19.375C19.7188 17.5 20 17.2188 20 16.875V15.625C20 15.2812 19.7188 15 19.375 15ZM19.375 8.75H16.25V8.125C16.25 7.78125 15.9688 7.5 15.625 7.5H14.375C14.0312 7.5 13.75 7.78125 13.75 8.125V8.75H0.625C0.28125 8.75 0 9.03125 0 9.375V10.625C0 10.9688 0.28125 11.25 0.625 11.25H13.75V11.875C13.75 12.2188 14.0312 12.5 14.375 12.5H15.625C15.9688 12.5 16.25 12.2188 16.25 11.875V11.25H19.375C19.7188 11.25 20 10.9688 20 10.625V9.375C20 9.03125 19.7188 8.75 19.375 8.75ZM19.375 2.5H11.25V1.875C11.25 1.53125 10.9688 1.25 10.625 1.25H9.375C9.03125 1.25 8.75 1.53125 8.75 1.875V2.5H0.625C0.28125 2.5 0 2.78125 0 3.125V4.375C0 4.71875 0.28125 5 0.625 5H8.75V5.625C8.75 5.96875 9.03125 6.25 9.375 6.25H10.625C10.9688 6.25 11.25 5.96875 11.25 5.625V5H19.375C19.7188 5 20 4.71875 20 4.375V3.125C20 2.78125 19.7188 2.5 19.375 2.5Z" fill="#9EAABE"/>
</svg>
