<svg width="15" height="20" viewBox="0 0 15 20" fill="none" xmlns="http://www.w3.org/2000/svg">
<path d="M8.4375 0.931568C8.4375 0.00188033 7.24023 -0.34851 6.71289 0.422193C1.875 7.49368 8.75 7.81204 8.75 11.2495C8.75 12.6413 7.61289 13.7675 6.2168 13.7491C4.84297 13.7316 3.75 12.5863 3.75 11.2124V7.87219C3.75 7.02454 2.71602 6.61321 2.13164 7.22766C1.08594 8.3261 0 10.2077 0 12.4995C0 16.6351 3.36445 19.9995 7.5 19.9995C11.6355 19.9995 15 16.6351 15 12.4995C15 5.84758 8.4375 4.96047 8.4375 0.931568V0.931568Z" fill="#9EAABE"/>
</svg>
